<svg xmlns="http://www.w3.org/2000/svg" viewBox="0 0 510.19 510.19"><defs><style>.cls-1{fill:#fff;}.cls-2{fill:#f8e8b5;}.cls-3{fill:#df7769;}.cls-4{fill:#f2a929;}.cls-5{fill:#e7683c;}.cls-6{fill:#00b2b9;}.cls-7{fill:#003c4b;}.cls-8{fill:#f9d254;}.cls-9{fill:#da1c5c;}</style></defs><title>Ativo 1</title><g id="Camada_2" data-name="Camada 2"><g id="Camada_1-2" data-name="Camada 1"><rect class="cls-1" width="510.19" height="510.19"/><path class="cls-2" d="M276.51,207.19H268.7v6.88h7.81a3.44,3.44,0,0,0,0-6.88Z"/><path class="cls-2" d="M232.58,207.19a10,10,0,1,0,7.08,2.93A9.69,9.69,0,0,0,232.58,207.19Z"/><path class="cls-2" d="M180.55,175.38c-6.38,0-11.58,4.84-11.58,10.8v62c0,6,5.2,10.81,11.58,10.81H327.68c6.38,0,11.58-4.85,11.58-10.81v-62c0-6-5.2-10.8-11.58-10.8Zm27.64,30.9a3,3,0,0,1-2.21.91h-5.63v23.14a2.94,2.94,0,0,1-.91,2.21,3,3,0,0,1-2.22.92,3.12,3.12,0,0,1-3.12-3.13V207.19h-5.63a3.11,3.11,0,0,1-3.13-3.13,3,3,0,0,1,.91-2.21,3,3,0,0,1,2.22-.91H206a3.12,3.12,0,0,1,3.13,3.12A3,3,0,0,1,208.19,206.28Zm35.88,22.41a16.24,16.24,0,1,1,4.77-11.49A15.7,15.7,0,0,1,244.07,228.69Zm39.3-11.21a9.38,9.38,0,0,1-6.86,2.85H268.7v10a3.13,3.13,0,0,1-6.26,0V204.06a3,3,0,0,1,.92-2.21,2.94,2.94,0,0,1,2.21-.91h10.94a9.69,9.69,0,0,1,6.86,16.54Zm32.7-3.41a2.94,2.94,0,0,1,2.21.91,3,3,0,0,1,.92,2.22,3.14,3.14,0,0,1-3.13,3.13h-10v6.87h14.39a3.13,3.13,0,0,1,0,6.26H302.94a3.12,3.12,0,0,1-3.13-3.13V204.06a3,3,0,0,1,.91-2.21,3,3,0,0,1,2.22-.91h17.51a3.13,3.13,0,1,1,0,6.25H306.06v6.88Z"/><path class="cls-3" d="M373.6,238.18l-.61.26v31.72l5-2.33a43.32,43.32,0,0,0,0-78.54L373,187v31.55l.61.25a10.49,10.49,0,0,1,0,19.41Z"/><path class="cls-3" d="M136.19,219l.61-.26V187.56l-5.09,2.6a43.32,43.32,0,0,0,0,77.16l5.09,2.6V238.58l-.61-.26a10.5,10.5,0,0,1,0-19.33Z"/><circle class="cls-3" cx="255.46" cy="99.69" r="16.99"/><path class="cls-4" d="M378.75,420.63l.44-.32-4.72-64c0-8.91-6.92-16.16-15.42-16.16H151.87c-8.51,0-15.42,7.25-15.42,16.13l-4.72,64,.43.32a206.41,206.41,0,0,0,246.59,0ZM171.63,404.34v-5.19a18.26,18.26,0,0,1,18.24-18.24H321.05a18.26,18.26,0,0,1,18.23,18.24v5.19a18.25,18.25,0,0,1-18.23,18.23H189.87A18.26,18.26,0,0,1,171.63,404.34Z"/><path class="cls-5" d="M458.92,318.89l.54-5.88-7.58,1.35-.24.05a26.38,26.38,0,0,1-3.14.56l-.3,0a27.65,27.65,0,0,1-4.25.48l-1.61.24h0a22.79,22.79,0,0,1-3.3-.24l-4.52-.66-.59,4.53c-.1.71-.2,1.42-.33,2.13a55.63,55.63,0,0,1-50.27,46.11l-1,.08,1.83,24.72,1-.1c2.56-.25,5-.62,7.35-1.07l.18,0A81.38,81.38,0,0,0,458.92,318.89Z"/><path class="cls-4" d="M158.53,313.59H351.08A14.94,14.94,0,0,0,366,298.67V238.35l-.59-.26a10.49,10.49,0,0,1,0-19.23l.59-.26V158A14.94,14.94,0,0,0,351.08,143H158.53A14.94,14.94,0,0,0,143.6,158v60.58l.61.26a10.5,10.5,0,0,1,0,19.33l-.61.26v60.27A15,15,0,0,0,158.53,313.59Zm130-28.44c-14.35,12.66-34.63,13.79-36.81,13.49l-1-.22a4.16,4.16,0,0,1-3.52-4.24,4.49,4.49,0,0,1,4.42-4.4h0c.77,0,19,0,31.23-11.14a4.61,4.61,0,0,1,6.11.46A4.74,4.74,0,0,1,288.54,285.15Zm-126.43-99c0-9.38,8.27-17,18.44-17H327.68c10.16,0,18.43,7.63,18.43,17v62c0,9.39-8.27,17-18.43,17H180.55c-10.17,0-18.44-7.63-18.44-17Z"/><path class="cls-6" d="M442.23,261l4-.19a23.87,23.87,0,0,1,2.93,0A27.2,27.2,0,0,1,461,266.54l1.54,1.27.1-2c.15-3.2.22-6.6.22-10.72a207.78,207.78,0,0,0-1.29-23l-.12-1.06-23.81,4.24Z"/><path class="cls-6" d="M117.76,408.43l-1.2.7,1,.92c1.81,1.61,3.7,3.23,5.8,5l1.47,1.22,1-11.57-1.5.58A47.82,47.82,0,0,0,117.76,408.43Z"/><path class="cls-6" d="M406,397.75l2.6-2.74L405,396.1a87.37,87.37,0,0,1-19.29,3.55l-1,.07,1.39,16.49,1.47-1.22A207.78,207.78,0,0,0,406,397.75Z"/><path class="cls-6" d="M381.79,360.52l1-.08A48.42,48.42,0,0,0,427,312.05V310l-1.57-1.33a27.51,27.51,0,0,1,6.48-46l3.18-1.45-3.62-20.29a11.58,11.58,0,0,1,9.37-13.43l19.7-3.51-.16-1A207.72,207.72,0,0,0,255.46,47.68c-114.37,0-207.41,93-207.41,207.41A208.75,208.75,0,0,0,89,378.76l.58.79.8-.57a87.75,87.75,0,0,1,37.78-15.23l.79-.12.55-7.46c.08-12.69,10.14-23,22.42-23H155V320.34l-2.53-.73a22,22,0,0,1-15.89-20.94V278.13l-2.34-.82a51.6,51.6,0,0,1,0-97.49l2.34-.82V158a21.94,21.94,0,0,1,21.91-21.91h93.35V123.73l-2.61-.69a24.16,24.16,0,1,1,12.37,0l-2.6.69v12.33h92A21.94,21.94,0,0,1,373,158v20.66l2.42.78a51.6,51.6,0,0,1,0,98.3l-2.42.78v20.18a22,22,0,0,1-15.89,20.94l-2.53.73v12.83h4.48c12.27,0,22.33,10.31,22.42,23.06Z"/><path class="cls-7" d="M501,269.77l-4.3-24.14a3.54,3.54,0,0,0-6.39-1.4,3.48,3.48,0,0,0-.58,2.64l5,28.17-24.82,4.43-1.44-3.2a25.73,25.73,0,0,0-1.19-2.31l-.16-.27,0-.31c.52-5.67.74-11.14.74-18.29a214.54,214.54,0,0,0-1.4-24.32l-.08-.65.57-.33a3.52,3.52,0,0,0,.27-5.95,3.34,3.34,0,0,0-1.13-.51l-.63-.17-.1-.64C449.52,120,359.28,42.68,255.46,42.68A212.43,212.43,0,0,0,91.55,390.21a215.35,215.35,0,0,0,15.52,16.87c2.09,2,4.25,4.06,6.42,6,2.85,2.56,5.8,5.08,8.76,7.47a212.33,212.33,0,0,0,296.82-30l.13-.16.18-.09a87,87,0,0,0,13.43-8.5l.66-.51,0,0c.61-.45,1.64-1.23,3-2.36,2.68,1.83,6.72,1.25,9.52-1.55s3.43-7.17,1.32-9.84c.81-1,1.64-2.07,2.49-3.21l.61-.81a87.13,87.13,0,0,0,16.24-46.38,88.72,88.72,0,0,0-.17-11.87l-.12-1.51.8-1.27a27.23,27.23,0,0,0,4.12-12.29l.28-3.45,20-3.57A11.59,11.59,0,0,0,501,269.77Zm-39.38-37.71a207.78,207.78,0,0,1,1.29,23c0,4.12-.07,7.52-.22,10.72l-.1,2L461,266.54a27.2,27.2,0,0,0-11.89-5.72,23.87,23.87,0,0,0-2.93,0l-4,.19-4.58-25.74L461.46,231ZM124.87,416.23,123.4,415c-2.1-1.73-4-3.35-5.8-5l-1-.92,1.2-.7a47.82,47.82,0,0,1,6.63-3.19l1.5-.58ZM126.43,397l-.66.19a55.59,55.59,0,0,0-14,6.46l-.68.43-.57-.57A210.75,210.75,0,0,1,95.41,387h0l-1-1.16.86-.62A80.1,80.1,0,0,1,120.88,373l.18-.05c1.86-.54,3.82-1,6-1.48l1.3-.27Zm252.32,23.63a206.41,206.41,0,0,1-246.59,0l-.43-.32,4.72-64c0-8.88,6.91-16.13,15.42-16.13H359.05c8.5,0,15.42,7.25,15.42,16.16l4.72,64ZM136,238.14l.61.26v31.34l-5.09-2.6a43.31,43.31,0,0,1,0-77.15l5.09-2.61v31.17l-.61.26a10.5,10.5,0,0,0,0,19.33Zm.6-9.66a3.5,3.5,0,1,1,3.5,3.5A3.5,3.5,0,0,1,136.61,228.48Zm7,9.92.61-.26a10.5,10.5,0,0,0,0-19.33l-.61-.26V158A14.94,14.94,0,0,1,158.53,143H351.08A14.94,14.94,0,0,1,366,158V218.6l-.59.26a10.49,10.49,0,0,0,0,19.23l.59.26v60.32a14.94,14.94,0,0,1-14.92,14.92H158.53a15,15,0,0,1-14.93-14.92Zm204,82.17v12.6H162v-12.6Zm33.88,35.66c-.09-12.75-10.15-23.06-22.42-23.06h-4.48V320.34l2.53-.73A22,22,0,0,0,373,298.67V278.49l2.42-.78a51.6,51.6,0,0,0,0-98.3l-2.42-.78V158a21.94,21.94,0,0,0-21.91-21.91H259V123.73l2.6-.69a24.16,24.16,0,1,0-12.37,0l2.61.69v12.33H158.53A21.94,21.94,0,0,0,136.62,158v21l-2.34.82a51.6,51.6,0,0,0,0,97.49l2.34.82v20.54a22,22,0,0,0,15.89,20.94l2.53.73v12.83h-3.17c-12.28,0-22.34,10.31-22.42,23l-.55,7.46-.79.12A87.75,87.75,0,0,0,90.33,379l-.8.57-.58-.79a208.75,208.75,0,0,1-40.9-123.67c0-114.36,93-207.41,207.41-207.41A207.72,207.72,0,0,1,460.38,223l.16,1-19.7,3.51a11.58,11.58,0,0,0-9.37,13.43l3.62,20.29-3.18,1.45a27.51,27.51,0,0,0-6.48,46L427,310v2.06a48.42,48.42,0,0,1-44.22,48.39l-1,.08ZM373.6,218.77l-.61-.25V187l5,2.32a43.32,43.32,0,0,1,0,78.54l-5,2.33V238.44l.61-.26a10.49,10.49,0,0,0,0-19.41Zm-.49,9.71a3.5,3.5,0,1,1-3.5-3.5A3.5,3.5,0,0,1,373.11,228.48ZM255.46,116.68a17,17,0,1,1,17-17A17,17,0,0,1,255.46,116.68ZM406,397.75A207.78,207.78,0,0,1,387.54,415l-1.47,1.22-1.39-16.49,1-.07A87.37,87.37,0,0,0,405,396.1L408.6,395Zm52.92-78.86a81.38,81.38,0,0,1-66.22,72.32l-.18,0c-2.31.45-4.79.82-7.35,1.07l-1,.1-1.83-24.72,1-.08a55.63,55.63,0,0,0,50.27-46.11c.13-.71.23-1.42.33-2.13l.59-4.53,4.52.66a22.79,22.79,0,0,0,3.3.24h0l1.61-.24a27.65,27.65,0,0,0,4.25-.48l.3,0a26.38,26.38,0,0,0,3.14-.56l.24-.05,7.58-1.35Zm4.34-26.84a20.67,20.67,0,0,1-12.55,15,19.67,19.67,0,0,1-7.26,1.38H443a16.31,16.31,0,0,1-1.83-.08,20.73,20.73,0,0,1-8.77-2.89l-1-.47-.29-.21a20.53,20.53,0,0,1-7.74-22.87l.64-2.06.52-.21a20.45,20.45,0,0,1,15.28-12.11l.13,0a20.66,20.66,0,0,1,23.33,24.55Z"/><path class="cls-7" d="M321.05,380.91H189.87a18.26,18.26,0,0,0-18.24,18.24v5.19a18.26,18.26,0,0,0,18.24,18.23H321.05a18.25,18.25,0,0,0,18.23-18.23v-5.19A18.26,18.26,0,0,0,321.05,380.91ZM203.5,416.49l-14.21-.05c-6.58-1.09-10.83-5.84-10.83-12.1v-5.19a11.43,11.43,0,0,1,11.41-11.41H203.5Zm32.61-.74h-25V387h25Zm31.87,0H242.19V387H268Zm32.61,0H274.8V387h25.79Zm31.87-11.41a11.45,11.45,0,0,1-11.41,11.41H307.41V387h13.64c6.08,0,11.41,5.67,11.41,12.15Z"/><path class="cls-7" d="M180.55,265.23H327.68c10.16,0,18.43-7.63,18.43-17v-62c0-9.38-8.27-17-18.43-17H180.55c-10.17,0-18.44,7.63-18.44,17v62C162.11,257.6,170.38,265.23,180.55,265.23ZM169,186.18c0-6,5.2-10.8,11.58-10.8H327.68c6.38,0,11.58,4.84,11.58,10.8v62c0,6-5.2,10.81-11.58,10.81H180.55c-6.38,0-11.58-4.85-11.58-10.81Z"/><path class="cls-7" d="M188.47,207.19h5.63v23.14a3.12,3.12,0,0,0,3.12,3.13,3,3,0,0,0,2.22-.92,2.94,2.94,0,0,0,.91-2.21V207.19H206a3,3,0,0,0,2.21-.91,3,3,0,0,0,.92-2.22,3.12,3.12,0,0,0-3.13-3.12H188.47a3,3,0,0,0-2.22.91,3,3,0,0,0-.91,2.21,3.11,3.11,0,0,0,3.13,3.13Z"/><path class="cls-7" d="M232.58,233.46a16.27,16.27,0,1,0-11.5-4.77A15.7,15.7,0,0,0,232.58,233.46Zm-7.08-23.34a10,10,0,1,1-2.93,7.08A9.69,9.69,0,0,1,225.5,210.12Z"/><path class="cls-7" d="M265.57,233.46a3.14,3.14,0,0,0,3.13-3.13v-10h7.81a9.7,9.7,0,1,0,0-19.39H265.57a2.94,2.94,0,0,0-2.21.91,3,3,0,0,0-.92,2.21v26.27a3.14,3.14,0,0,0,3.13,3.13Zm3.13-26.27h7.81a3.44,3.44,0,0,1,0,6.88H268.7Z"/><path class="cls-7" d="M302.94,233.46h17.51a3.13,3.13,0,0,0,0-6.26H306.06v-6.87h10a3.14,3.14,0,0,0,3.13-3.13,3,3,0,0,0-.92-2.22,2.94,2.94,0,0,0-2.21-.91h-10v-6.88h14.39a3.13,3.13,0,1,0,0-6.25H302.94a3,3,0,0,0-2.22.91,3,3,0,0,0-.91,2.21v26.27a3.12,3.12,0,0,0,3.13,3.13Z"/><path class="cls-7" d="M282.87,278.64c-12.26,11.13-30.46,11.13-31.23,11.14h0a4.49,4.49,0,0,0-4.42,4.4,4.16,4.16,0,0,0,3.52,4.24l1,.22c2.18.3,22.46-.83,36.81-13.49a4.74,4.74,0,0,0,.44-6A4.61,4.61,0,0,0,282.87,278.64Z"/><path class="cls-7" d="M298.93,117.25,293,113.81a3.08,3.08,0,0,0-4.22,1.17l0,.07a3.09,3.09,0,0,0,1.1,4.24l5.95,3.43a3.07,3.07,0,0,0,4.2-1.12l.09-.15A3.08,3.08,0,0,0,298.93,117.25Z"/><path class="cls-7" d="M288.76,78.37A3.09,3.09,0,0,0,293,79.54l5.95-3.44a3.08,3.08,0,0,0,1.13-4.2l-.09-.15a3.08,3.08,0,0,0-4.2-1.13l-5.95,3.44a3.09,3.09,0,0,0-1.1,4.24Z"/><path class="cls-7" d="M223.64,115a3.08,3.08,0,0,0-4.22-1.17l-5.95,3.44a3.07,3.07,0,0,0-1.12,4.2l.09.15a3.06,3.06,0,0,0,4.19,1.12l6-3.43a3.1,3.1,0,0,0,1.1-4.24Z"/><path class="cls-7" d="M213.47,76.1l5.95,3.44a3.09,3.09,0,0,0,4.22-1.17l0-.07a3.09,3.09,0,0,0-1.1-4.24l-6-3.44a3.08,3.08,0,0,0-4.2,1.13l-.09.15A3.08,3.08,0,0,0,213.47,76.1Z"/><path class="cls-7" d="M216.87,96.73v-.08a3.08,3.08,0,0,0-3.06-3.13l-6.87,0a3.09,3.09,0,0,0-3.09,3.07v.18a3.08,3.08,0,0,0,3.07,3.08l6.87,0A3.09,3.09,0,0,0,216.87,96.73Z"/><path class="cls-7" d="M305.48,93.52l-6.87,0a3.08,3.08,0,0,0-3.08,3.07v.18a3.08,3.08,0,0,0,3.07,3.08l6.87,0a3.1,3.1,0,0,0,3.08-3.12v-.08A3.09,3.09,0,0,0,305.48,93.52Z"/><path class="cls-7" d="M501,269.77l-4.3-24.14a3.54,3.54,0,0,0-6.39-1.4,3.48,3.48,0,0,0-.58,2.64l5,28.17-24.82,4.43-1.44-3.2a25.73,25.73,0,0,0-1.19-2.31l-.16-.27,0-.31c.52-5.67.74-11.14.74-18.29a214.54,214.54,0,0,0-1.4-24.32l-.08-.65.57-.33a3.52,3.52,0,0,0,.27-5.95,3.34,3.34,0,0,0-1.13-.51l-.63-.17-.1-.64C449.52,120,359.28,42.68,255.46,42.68A212.43,212.43,0,0,0,91.55,390.21a215.35,215.35,0,0,0,15.52,16.87c2.09,2,4.25,4.06,6.42,6,2.85,2.56,5.8,5.08,8.76,7.47a212.33,212.33,0,0,0,296.82-30l.13-.16.18-.09a87,87,0,0,0,13.43-8.5l.66-.51,0,0c.61-.45,1.64-1.23,3-2.36,2.68,1.83,6.72,1.25,9.52-1.55s3.43-7.17,1.32-9.84c.81-1,1.64-2.07,2.49-3.21l.61-.81a87.13,87.13,0,0,0,16.24-46.38,88.72,88.72,0,0,0-.17-11.87l-.12-1.51.8-1.27a27.23,27.23,0,0,0,4.12-12.29l.28-3.45,20-3.57A11.59,11.59,0,0,0,501,269.77Zm-39.38-37.71a207.78,207.78,0,0,1,1.29,23c0,4.12-.07,7.52-.22,10.72l-.1,2L461,266.54a27.2,27.2,0,0,0-11.89-5.72,23.87,23.87,0,0,0-2.93,0l-4,.19-4.58-25.74L461.46,231ZM124.87,416.23,123.4,415c-2.1-1.73-4-3.35-5.8-5l-1-.92,1.2-.7a47.82,47.82,0,0,1,6.63-3.19l1.5-.58ZM126.43,397l-.66.19a55.59,55.59,0,0,0-14,6.46l-.68.43-.57-.57A210.75,210.75,0,0,1,95.41,387h0l-1-1.16.86-.62A80.1,80.1,0,0,1,120.88,373l.18-.05c1.86-.54,3.82-1,6-1.48l1.3-.27Zm252.32,23.63a206.41,206.41,0,0,1-246.59,0l-.43-.32,4.72-64c0-8.88,6.91-16.13,15.42-16.13H359.05c8.5,0,15.42,7.25,15.42,16.16l4.72,64ZM136,238.14l.61.26v31.34l-5.09-2.6a43.31,43.31,0,0,1,0-77.15l5.09-2.61v31.17l-.61.26a10.5,10.5,0,0,0,0,19.33Zm.6-9.66a3.5,3.5,0,1,1,3.5,3.5A3.5,3.5,0,0,1,136.61,228.48Zm7,9.92.61-.26a10.5,10.5,0,0,0,0-19.33l-.61-.26V158A14.94,14.94,0,0,1,158.53,143H351.08A14.94,14.94,0,0,1,366,158V218.6l-.59.26a10.49,10.49,0,0,0,0,19.23l.59.26v60.32a14.94,14.94,0,0,1-14.92,14.92H158.53a15,15,0,0,1-14.93-14.92Zm204,82.17v12.6H162v-12.6Zm33.88,35.66c-.09-12.75-10.15-23.06-22.42-23.06h-4.48V320.34l2.53-.73A22,22,0,0,0,373,298.67V278.49l2.42-.78a51.6,51.6,0,0,0,0-98.3l-2.42-.78V158a21.94,21.94,0,0,0-21.91-21.91H259V123.73l2.6-.69a24.16,24.16,0,1,0-12.37,0l2.61.69v12.33H158.53A21.94,21.94,0,0,0,136.62,158v21l-2.34.82a51.6,51.6,0,0,0,0,97.49l2.34.82v20.54a22,22,0,0,0,15.89,20.94l2.53.73v12.83h-3.17c-12.28,0-22.34,10.31-22.42,23l-.55,7.46-.79.12A87.75,87.75,0,0,0,90.33,379l-.8.57-.58-.79a208.75,208.75,0,0,1-40.9-123.67c0-114.36,93-207.41,207.41-207.41A207.72,207.72,0,0,1,460.38,223l.16,1-19.7,3.51a11.58,11.58,0,0,0-9.37,13.43l3.62,20.29-3.18,1.45a27.51,27.51,0,0,0-6.48,46L427,310v2.06a48.42,48.42,0,0,1-44.22,48.39l-1,.08ZM373.6,218.77l-.61-.25V187l5,2.32a43.32,43.32,0,0,1,0,78.54l-5,2.33V238.44l.61-.26a10.49,10.49,0,0,0,0-19.41Zm-.49,9.71a3.5,3.5,0,1,1-3.5-3.5A3.5,3.5,0,0,1,373.11,228.48ZM255.46,116.68a17,17,0,1,1,17-17A17,17,0,0,1,255.46,116.68ZM406,397.75A207.78,207.78,0,0,1,387.54,415l-1.47,1.22-1.39-16.49,1-.07A87.37,87.37,0,0,0,405,396.1L408.6,395Zm52.92-78.86a81.38,81.38,0,0,1-66.22,72.32l-.18,0c-2.31.45-4.79.82-7.35,1.07l-1,.1-1.83-24.72,1-.08a55.63,55.63,0,0,0,50.27-46.11c.13-.71.23-1.42.33-2.13l.59-4.53,4.52.66a22.79,22.79,0,0,0,3.3.24h0l1.61-.24a27.65,27.65,0,0,0,4.25-.48l.3,0a26.38,26.38,0,0,0,3.14-.56l.24-.05,7.58-1.35Zm4.34-26.84a20.67,20.67,0,0,1-12.55,15,19.67,19.67,0,0,1-7.26,1.38H443a16.31,16.31,0,0,1-1.83-.08,20.73,20.73,0,0,1-8.77-2.89l-1-.47-.29-.21a20.53,20.53,0,0,1-7.74-22.87l.64-2.06.52-.21a20.45,20.45,0,0,1,15.28-12.11l.13,0a20.66,20.66,0,0,1,23.33,24.55Z"/><path class="cls-7" d="M321.05,380.91H189.87a18.26,18.26,0,0,0-18.24,18.24v5.19a18.26,18.26,0,0,0,18.24,18.23H321.05a18.25,18.25,0,0,0,18.23-18.23v-5.19A18.26,18.26,0,0,0,321.05,380.91ZM203.5,416.49l-14.21-.05c-6.58-1.09-10.83-5.84-10.83-12.1v-5.19a11.43,11.43,0,0,1,11.41-11.41H203.5Zm32.61-.74h-25V387h25Zm31.87,0H242.19V387H268Zm32.61,0H274.8V387h25.79Zm31.87-11.41a11.45,11.45,0,0,1-11.41,11.41H307.41V387h13.64c6.08,0,11.41,5.67,11.41,12.15Z"/><path class="cls-7" d="M180.55,265.23H327.68c10.16,0,18.43-7.63,18.43-17v-62c0-9.38-8.27-17-18.43-17H180.55c-10.17,0-18.44,7.63-18.44,17v62C162.11,257.6,170.38,265.23,180.55,265.23ZM169,186.18c0-6,5.2-10.8,11.58-10.8H327.68c6.38,0,11.58,4.84,11.58,10.8v62c0,6-5.2,10.81-11.58,10.81H180.55c-6.38,0-11.58-4.85-11.58-10.81Z"/><path class="cls-7" d="M188.47,207.19h5.63v23.14a3.12,3.12,0,0,0,3.12,3.13,3,3,0,0,0,2.22-.92,2.94,2.94,0,0,0,.91-2.21V207.19H206a3,3,0,0,0,2.21-.91,3,3,0,0,0,.92-2.22,3.12,3.12,0,0,0-3.13-3.12H188.47a3,3,0,0,0-2.22.91,3,3,0,0,0-.91,2.21,3.11,3.11,0,0,0,3.13,3.13Z"/><path class="cls-7" d="M232.58,233.46a16.27,16.27,0,1,0-11.5-4.77A15.7,15.7,0,0,0,232.58,233.46Zm-7.08-23.34a10,10,0,1,1-2.93,7.08A9.69,9.69,0,0,1,225.5,210.12Z"/><path class="cls-7" d="M265.57,233.46a3.14,3.14,0,0,0,3.13-3.13v-10h7.81a9.7,9.7,0,1,0,0-19.39H265.57a2.94,2.94,0,0,0-2.21.91,3,3,0,0,0-.92,2.21v26.27a3.14,3.14,0,0,0,3.13,3.13Zm3.13-26.27h7.81a3.44,3.44,0,0,1,0,6.88H268.7Z"/><path class="cls-7" d="M302.94,233.46h17.51a3.13,3.13,0,0,0,0-6.26H306.06v-6.87h10a3.14,3.14,0,0,0,3.13-3.13,3,3,0,0,0-.92-2.22,2.94,2.94,0,0,0-2.21-.91h-10v-6.88h14.39a3.13,3.13,0,1,0,0-6.25H302.94a3,3,0,0,0-2.22.91,3,3,0,0,0-.91,2.21v26.27a3.12,3.12,0,0,0,3.13,3.13Z"/><path class="cls-7" d="M282.87,278.64c-12.26,11.13-30.46,11.13-31.23,11.14h0a4.49,4.49,0,0,0-4.42,4.4,4.16,4.16,0,0,0,3.52,4.24l1,.22c2.18.3,22.46-.83,36.81-13.49a4.74,4.74,0,0,0,.44-6A4.61,4.61,0,0,0,282.87,278.64Z"/><path class="cls-7" d="M298.93,117.25,293,113.81a3.08,3.08,0,0,0-4.22,1.17l0,.07a3.09,3.09,0,0,0,1.1,4.24l5.95,3.43a3.07,3.07,0,0,0,4.2-1.12l.09-.15A3.08,3.08,0,0,0,298.93,117.25Z"/><path class="cls-7" d="M288.76,78.37A3.09,3.09,0,0,0,293,79.54l5.95-3.44a3.08,3.08,0,0,0,1.13-4.2l-.09-.15a3.08,3.08,0,0,0-4.2-1.13l-5.95,3.44a3.09,3.09,0,0,0-1.1,4.24Z"/><path class="cls-7" d="M223.64,115a3.08,3.08,0,0,0-4.22-1.17l-5.95,3.44a3.07,3.07,0,0,0-1.12,4.2l.09.15a3.06,3.06,0,0,0,4.19,1.12l6-3.43a3.1,3.1,0,0,0,1.1-4.24Z"/><path class="cls-7" d="M213.47,76.1l5.95,3.44a3.09,3.09,0,0,0,4.22-1.17l0-.07a3.09,3.09,0,0,0-1.1-4.24l-6-3.44a3.08,3.08,0,0,0-4.2,1.13l-.09.15A3.08,3.08,0,0,0,213.47,76.1Z"/><path class="cls-7" d="M216.87,96.73v-.08a3.08,3.08,0,0,0-3.06-3.13l-6.87,0a3.09,3.09,0,0,0-3.09,3.07v.18a3.08,3.08,0,0,0,3.07,3.08l6.87,0A3.09,3.09,0,0,0,216.87,96.73Z"/><path class="cls-7" d="M305.48,93.52l-6.87,0a3.08,3.08,0,0,0-3.08,3.07v.18a3.08,3.08,0,0,0,3.07,3.08l6.87,0a3.1,3.1,0,0,0,3.08-3.12v-.08A3.09,3.09,0,0,0,305.48,93.52Z"/><rect class="cls-8" x="162.02" y="320.57" width="185.57" height="12.6"/><circle class="cls-9" cx="369.61" cy="228.48" r="3.5"/><circle class="cls-9" cx="140.11" cy="228.48" r="3.5"/><path class="cls-4" d="M450.71,307a20.64,20.64,0,0,0-10.78-39.54l-.13,0a20.45,20.45,0,0,0-15.28,12.11l-.52.21-.64,2.06a20.53,20.53,0,0,0,7.74,22.87l.29.21,1,.47a20.73,20.73,0,0,0,8.77,2.89,16.31,16.31,0,0,0,1.83.08h.44A19.67,19.67,0,0,0,450.71,307Z"/><path class="cls-5" d="M126.43,397l1.91-25.85-1.3.27c-2.16.45-4.12.94-6,1.48l-.18.05a80.1,80.1,0,0,0-25.56,12.29l-.86.62,1,1.16h0a210.75,210.75,0,0,0,15.16,16.48l.57.57.68-.43a55.59,55.59,0,0,1,14-6.46Z"/><path class="cls-3" d="M189.29,416.44l14.21.05V387.74H189.87a11.43,11.43,0,0,0-11.41,11.41v5.19C178.46,410.6,182.71,415.35,189.29,416.44Z"/><rect class="cls-5" x="211.07" y="387" width="25.05" height="28.75"/><rect class="cls-3" x="242.19" y="387" width="25.79" height="28.75"/><rect class="cls-5" x="274.8" y="387" width="25.79" height="28.75"/><path class="cls-3" d="M332.46,404.34v-5.19c0-6.48-5.33-12.15-11.41-12.15H307.41v28.75h13.64A11.45,11.45,0,0,0,332.46,404.34Z"/></g></g></svg>